<svg width="58" height="58" viewBox="-3 -3 64 64" fill="none" xmlns="http://www.w3.org/2000/svg">
<path d="M29 58C45.0163 58 58 45.0163 58 29C58 12.9837 45.0163 0 29 0C12.9837 0 0 12.9837 0 29C0 45.0163 12.9837 58 29 58Z" fill="#5F67FA"/>
<path fill-rule="evenodd" clip-rule="evenodd" d="M41.4384 29.1063L41.4542 18.8087C37.7277 16.8679 33.4924 15.7692 29 15.7692C24.5076 15.7692 20.2723 16.8679 16.5458 18.8087L16.5615 29.1063C16.5615 37.1067 21.7808 43.8878 29 46.2308C36.2192 43.8878 41.4384 37.1067 41.4384 29.1063ZM22.7742 22H21.3896L21.3942 29.1063C21.3942 32.5976 22.0023 35.8565 23.0542 38.6157H24.5436C23.3879 35.812 22.7788 32.5404 22.7788 29.1054L22.7742 22ZM34.9458 38.6157H33.4564C34.612 35.812 35.2211 32.5404 35.2211 29.1063L35.2257 22H36.6103L36.6057 29.1063C36.6057 32.5976 35.9977 35.8565 34.9458 38.6157ZM40.0683 19.6639C36.6055 17.9985 32.8861 17.1547 29 17.1547C25.1139 17.1547 21.3945 17.9985 17.9317 19.6639L17.9461 29.1052C17.9461 32.6877 19.0669 36.0975 21.1872 38.9682C23.177 41.662 25.871 43.6605 29 44.7696C32.129 43.6605 34.823 41.662 36.8127 38.9682C38.933 36.0975 40.0538 32.6877 40.0538 29.1072L40.0683 19.6639ZM28.0487 29.4203C27.1837 29.0505 26.5771 28.1926 26.5771 27.1921C26.5771 25.854 27.6618 24.7692 29 24.7692C30.3382 24.7692 31.423 25.854 31.423 27.1921C31.423 28.1924 30.8163 29.0503 29.9514 29.4203L31.423 34.9125H31.4225C30.6672 35.189 29.8513 35.3399 29.0002 35.3399C28.1491 35.3399 27.3333 35.189 26.5779 34.9125H26.5771L28.0487 29.4203Z" fill="white"/>
</svg>
